<svg width="730" height="599" viewBox="0 0 730 599" fill="none" xmlns="http://www.w3.org/2000/svg">
<path d="M665.059 415.767H641.042V413.641C641.041 412.65 641.242 411.669 641.633 410.758C642.025 409.847 642.598 409.026 643.319 408.343C644.039 407.661 644.891 407.133 645.823 406.79C646.755 406.448 647.748 406.299 648.739 406.352L658.147 406.87C660.013 406.97 661.769 407.78 663.055 409.133C664.341 410.486 665.058 412.28 665.059 414.144V415.767Z" fill="white"/>
<mask id="mask0_1_50" style="mask-type:luminance" maskUnits="userSpaceOnUse" x="641" y="406" width="25" height="10">
<path d="M665.059 415.767H641.042V413.641C641.041 412.65 641.242 411.669 641.633 410.758C642.025 409.847 642.598 409.026 643.319 408.343C644.039 407.661 644.891 407.133 645.823 406.79C646.755 406.448 647.748 406.299 648.739 406.352L658.147 406.87C660.013 406.97 661.769 407.78 663.055 409.133C664.341 410.486 665.058 412.28 665.059 414.144V415.767Z" fill="white"/>
</mask>
<g mask="url(#mask0_1_50)">
<path opacity="0.8" d="M665.059 415.767H641.042V413.641C641.041 412.65 641.242 411.669 641.633 410.758C642.025 409.847 642.598 409.026 643.319 408.343C644.039 407.661 644.891 407.133 645.823 406.79C646.755 406.448 647.748 406.299 648.739 406.352L658.147 406.87C660.013 406.97 661.769 407.78 663.055 409.133C664.341 410.486 665.058 412.28 665.059 414.144V415.767Z" fill="white"/>
</g>
<path d="M665.059 415.767H641.042V413.641C641.041 412.65 641.242 411.669 641.633 410.758C642.025 409.847 642.598 409.026 643.319 408.343C644.039 407.661 644.891 407.133 645.823 406.79C646.755 406.448 647.748 406.299 648.739 406.352L658.147 406.87C660.013 406.97 661.769 407.78 663.055 409.133C664.341 410.486 665.058 412.28 665.059 414.144V415.767Z" stroke="#263238" stroke-width="1.25903" stroke-linecap="round" stroke-linejoin="round"/>
<path d="M600.216 366.229C600.172 365.32 599.78 364.462 599.119 363.834C598.459 363.206 597.581 362.857 596.669 362.858H572.4C571.489 362.86 570.613 363.211 569.953 363.838C569.293 364.465 568.899 365.321 568.853 366.229L574.643 416.705H610.871L600.216 366.229Z" fill="white" stroke="#263238" stroke-width="1.25903" stroke-linecap="round" stroke-linejoin="round"/>
<path d="M666.124 288.641H657.081L646.931 383.912H655.96C656.705 383.895 657.418 383.611 657.971 383.113C658.525 382.615 658.88 381.936 658.974 381.198L668.578 291.341C668.625 290.997 668.596 290.646 668.494 290.315C668.391 289.983 668.216 289.677 667.982 289.42C667.748 289.163 667.461 288.959 667.14 288.825C666.819 288.69 666.472 288.627 666.124 288.641Z" fill="white" stroke="#263238" stroke-width="1.25903" stroke-linecap="round" stroke-linejoin="round"/>
<path d="M652.146 383.912H516.614C516.267 383.92 515.924 383.852 515.606 383.714C515.289 383.576 515.005 383.371 514.774 383.113C514.544 382.855 514.372 382.55 514.271 382.22C514.17 381.889 514.142 381.541 514.188 381.198L523.778 291.299C523.869 290.564 524.222 289.887 524.773 289.391C525.325 288.895 526.036 288.614 526.778 288.599H662.311C662.656 288.59 663 288.656 663.317 288.792C663.635 288.928 663.919 289.132 664.15 289.389C664.381 289.646 664.552 289.95 664.654 290.28C664.755 290.609 664.783 290.957 664.736 291.299L655.147 381.198C655.056 381.935 654.703 382.614 654.152 383.112C653.601 383.61 652.89 383.894 652.146 383.912Z" fill="white"/>
<mask id="mask1_1_50" style="mask-type:luminance" maskUnits="userSpaceOnUse" x="514" y="288" width="151" height="96">
<path d="M652.146 383.912H516.614C516.267 383.92 515.924 383.852 515.606 383.714C515.289 383.576 515.005 383.371 514.774 383.113C514.544 382.855 514.372 382.55 514.271 382.22C514.17 381.889 514.142 381.541 514.188 381.198L523.778 291.299C523.869 290.564 524.222 289.887 524.773 289.391C525.325 288.895 526.036 288.614 526.778 288.599H662.311C662.656 288.59 663 288.656 663.317 288.792C663.635 288.928 663.919 289.132 664.15 289.389C664.381 289.646 664.552 289.95 664.654 290.28C664.755 290.609 664.783 290.957 664.736 291.299L655.147 381.198C655.056 381.935 654.703 382.614 654.152 383.112C653.601 383.61 652.89 383.894 652.146 383.912Z" fill="white"/>
</mask>
<g mask="url(#mask1_1_50)">
<path opacity="0.4" d="M652.146 383.912H516.614C516.267 383.92 515.924 383.852 515.606 383.714C515.289 383.576 515.005 383.371 514.774 383.113C514.544 382.855 514.372 382.55 514.271 382.22C514.17 381.889 514.142 381.541 514.188 381.198L523.778 291.299C523.869 290.564 524.222 289.887 524.773 289.391C525.325 288.895 526.036 288.614 526.778 288.599H662.311C662.656 288.59 663 288.656 663.317 288.792C663.635 288.928 663.919 289.132 664.15 289.389C664.381 289.646 664.552 289.95 664.654 290.28C664.755 290.609 664.783 290.957 664.736 291.299L655.147 381.198C655.056 381.935 654.703 382.614 654.152 383.112C653.601 383.61 652.89 383.894 652.146 383.912Z" fill="white"/>
</g>
<path d="M652.146 383.912H516.614C516.267 383.92 515.924 383.852 515.606 383.714C515.289 383.576 515.005 383.371 514.774 383.113C514.544 382.855 514.372 382.55 514.271 382.22C514.17 381.889 514.142 381.541 514.188 381.198L523.778 291.299C523.869 290.564 524.222 289.887 524.773 289.391C525.325 288.895 526.036 288.614 526.778 288.599H662.311C662.656 288.59 663 288.656 663.317 288.792C663.635 288.928 663.919 289.132 664.15 289.389C664.381 289.646 664.552 289.95 664.654 290.28C664.755 290.609 664.783 290.957 664.736 291.299L655.147 381.198C655.056 381.935 654.703 382.614 654.152 383.112C653.601 383.61 652.89 383.894 652.146 383.912Z" stroke="#263238" stroke-width="1.25903" stroke-linecap="round" stroke-linejoin="round"/>
<path d="M612.203 412.774H567.633C567.112 412.774 566.613 412.98 566.245 413.347C565.877 413.715 565.67 414.213 565.67 414.732C565.67 415.253 565.876 415.753 566.244 416.122C566.612 416.492 567.111 416.701 567.633 416.705H612.189C612.711 416.701 613.21 416.492 613.578 416.122C613.945 415.753 614.152 415.253 614.152 414.732C614.152 414.215 613.947 413.719 613.582 413.352C613.217 412.985 612.721 412.777 612.203 412.774Z" fill="white" stroke="#263238" stroke-width="1.25903" stroke-linecap="round" stroke-linejoin="round"/>
<path d="M649.609 375.155H521.801C521.499 375.161 521.199 375.103 520.922 374.983C520.645 374.863 520.398 374.684 520.196 374.459C519.995 374.235 519.845 373.969 519.757 373.681C519.668 373.393 519.644 373.089 519.684 372.79L528.096 294.349C528.174 293.705 528.482 293.112 528.964 292.677C529.446 292.243 530.069 291.997 530.718 291.984H658.483C658.785 291.98 659.083 292.04 659.359 292.161C659.635 292.282 659.882 292.46 660.083 292.685C660.283 292.909 660.433 293.173 660.523 293.461C660.612 293.748 660.639 294.051 660.6 294.349L652.188 372.79C652.109 373.426 651.806 374.012 651.334 374.445C650.861 374.878 650.25 375.13 649.609 375.155Z" fill="white"/>
<mask id="mask2_1_50" style="mask-type:luminance" maskUnits="userSpaceOnUse" x="519" y="291" width="142" height="85">
<path d="M649.609 375.155H521.801C521.499 375.161 521.199 375.103 520.922 374.983C520.645 374.863 520.398 374.684 520.196 374.459C519.995 374.235 519.845 373.969 519.757 373.681C519.668 373.393 519.644 373.089 519.684 372.79L528.096 294.349C528.174 293.705 528.482 293.112 528.964 292.677C529.446 292.243 530.069 291.997 530.718 291.984H658.483C658.785 291.98 659.083 292.04 659.359 292.161C659.635 292.282 659.882 292.46 660.083 292.685C660.283 292.909 660.433 293.173 660.523 293.461C660.612 293.748 660.639 294.051 660.6 294.349L652.188 372.79C652.109 373.426 651.806 374.012 651.334 374.445C650.861 374.878 650.25 375.13 649.609 375.155Z" fill="white"/>
</mask>
<g mask="url(#mask2_1_50)">
<path opacity="0.8" d="M649.609 375.155H521.801C521.499 375.161 521.199 375.103 520.922 374.983C520.645 374.863 520.398 374.684 520.196 374.459C519.995 374.235 519.845 373.969 519.757 373.681C519.668 373.393 519.644 373.089 519.684 372.79L528.096 294.349C528.174 293.705 528.482 293.112 528.964 292.677C529.446 292.243 530.069 291.997 530.718 291.984H658.483C658.785 291.98 659.083 292.04 659.359 292.161C659.635 292.282 659.882 292.46 660.083 292.685C660.283 292.909 660.433 293.173 660.523 293.461C660.612 293.748 660.639 294.051 660.6 294.349L652.188 372.79C652.109 373.426 651.806 374.012 651.334 374.445C650.861 374.878 650.25 375.13 649.609 375.155Z" fill="white"/>
</g>
<path d="M649.609 375.155H521.801C521.499 375.161 521.199 375.103 520.922 374.983C520.645 374.863 520.398 374.684 520.196 374.459C519.995 374.235 519.845 373.969 519.757 373.681C519.668 373.393 519.644 373.089 519.684 372.79L528.096 294.349C528.174 293.705 528.482 293.112 528.964 292.677C529.446 292.243 530.069 291.997 530.718 291.984H658.483C658.785 291.98 659.083 292.04 659.359 292.161C659.635 292.282 659.882 292.46 660.083 292.685C660.283 292.909 660.433 293.173 660.523 293.461C660.612 293.748 660.639 294.051 660.6 294.349L652.188 372.79C652.109 373.426 651.806 374.012 651.334 374.445C650.861 374.878 650.25 375.13 649.609 375.155Z" stroke="#263238" stroke-width="1.25903" stroke-linecap="round" stroke-linejoin="round"/>
<path d="M361.285 429.394H371.73V580.611C371.73 581.163 371.51 581.694 371.118 582.085C370.726 582.475 370.195 582.695 369.641 582.695H363.388C362.834 582.695 362.302 582.475 361.911 582.085C361.519 581.694 361.299 581.163 361.299 580.611V429.394H361.285Z" fill="white" stroke="#263238" stroke-width="1.25903" stroke-linecap="round" stroke-linejoin="round"/>
<path d="M684.659 415.767H594.117V429.394H684.659V415.767Z" fill="white"/>
<mask id="mask3_1_50" style="mask-type:luminance" maskUnits="userSpaceOnUse" x="594" y="415" width="91" height="15">
<path d="M684.659 415.767H594.117V429.394H684.659V415.767Z" fill="white"/>
</mask>
<g mask="url(#mask3_1_50)">
<path opacity="0.4" d="M684.659 415.767H594.117V429.394H684.659V415.767Z" fill="white"/>
</g>
<path d="M684.659 415.767H594.117V429.394H684.659V415.767Z" stroke="#263238" stroke-width="1.25903" stroke-linecap="round" stroke-linejoin="round"/>
<path d="M426.03 429.394H436.475V580.611C436.475 581.163 436.255 581.694 435.863 582.085C435.471 582.475 434.94 582.695 434.386 582.695H428.133C427.857 582.697 427.584 582.644 427.329 582.54C427.074 582.437 426.842 582.283 426.646 582.09C426.451 581.896 426.296 581.665 426.19 581.412C426.084 581.158 426.03 580.886 426.03 580.611V429.394Z" fill="white" stroke="#263238" stroke-width="1.25903" stroke-linecap="round" stroke-linejoin="round"/>
<path d="M668.185 429.394H678.63V580.611C678.63 581.163 678.41 581.694 678.018 582.085C677.627 582.475 677.095 582.695 676.541 582.695H670.288C669.734 582.695 669.203 582.475 668.811 582.085C668.419 581.694 668.199 581.163 668.199 580.611V429.394H668.185Z" fill="white" stroke="#263238" stroke-width="1.25903" stroke-linecap="round" stroke-linejoin="round"/>
<path d="M619.942 415.767H355.242V429.394H619.942V415.767Z" fill="white"/>
<mask id="mask4_1_50" style="mask-type:luminance" maskUnits="userSpaceOnUse" x="355" y="415" width="265" height="15">
<path d="M619.942 415.767H355.242V429.394H619.942V415.767Z" fill="white"/>
</mask>
<g mask="url(#mask4_1_50)">
<path opacity="0.7" d="M619.942 415.767H355.242V429.394H619.942V415.767Z" fill="white"/>
</g>
<path d="M619.942 415.767H355.242V429.394H619.942V415.767Z" stroke="#263238" stroke-width="1.25903" stroke-linecap="round" stroke-linejoin="round"/>
<path d="M603.468 429.394H613.899V580.611C613.899 581.163 613.679 581.694 613.288 582.085C612.896 582.475 612.364 582.695 611.81 582.695H605.487C604.933 582.695 604.402 582.475 604.01 582.085C603.618 581.694 603.398 581.163 603.398 580.611V429.394H603.468Z" fill="white" stroke="#263238" stroke-width="1.25903" stroke-linecap="round" stroke-linejoin="round"/>
<path d="M598.744 410.157H523.175V415.767H598.744V410.157Z" fill="white"/>
<mask id="mask5_1_50" style="mask-type:luminance" maskUnits="userSpaceOnUse" x="523" y="410" width="76" height="6">
<path d="M598.744 410.157H523.175V415.767H598.744V410.157Z" fill="white"/>
</mask>
<g mask="url(#mask5_1_50)">
<path opacity="0.4" d="M598.744 410.157H523.175V415.767H598.744V410.157Z" fill="white"/>
</g>
<path d="M598.744 410.157H523.175V415.767H598.744V410.157Z" stroke="#263238" stroke-width="1.25903" stroke-linecap="round" stroke-linejoin="round"/>
<path d="M36.3681 582.709H162.297L162.297 415.501H36.3681L36.3681 582.709Z" fill="white"/>
<mask id="mask6_1_50" style="mask-type:luminance" maskUnits="userSpaceOnUse" x="36" y="415" width="127" height="168">
<path d="M36.3681 582.709H162.297L162.297 415.501H36.3681L36.3681 582.709Z" fill="white"/>
</mask>
<g mask="url(#mask6_1_50)">
<path opacity="0.7" d="M36.3681 582.709H162.297L162.297 415.501H36.3681L36.3681 582.709Z" fill="white"/>
</g>
<path d="M36.3681 582.709H162.297L162.297 415.501H36.3681L36.3681 582.709Z" stroke="#263238" stroke-width="1.25903" stroke-linecap="round" stroke-linejoin="round"/>
<path d="M12.3376 582.709H36.3681L36.3681 415.501H12.3376L12.3376 582.709Z" fill="white"/>
<mask id="mask7_1_50" style="mask-type:luminance" maskUnits="userSpaceOnUse" x="12" y="415" width="25" height="168">
<path d="M12.3376 582.709H36.3681L36.3681 415.501H12.3376L12.3376 582.709Z" fill="white"/>
</mask>
<g mask="url(#mask7_1_50)">
<path opacity="0.3" d="M12.3376 582.709H36.3681L36.3681 415.501H12.3376L12.3376 582.709Z" fill="white"/>
</g>
<path d="M12.3376 582.709H36.3681L36.3681 415.501H12.3376L12.3376 582.709Z" stroke="#263238" stroke-width="1.25903" stroke-linecap="round" stroke-linejoin="round"/>
<path d="M44.5419 468.509H153.478V427.897H44.5419V468.509Z" fill="white" stroke="#263238" stroke-width="1.25903" stroke-linecap="round" stroke-linejoin="round"/>
<path d="M44.5419 513.543H153.478V472.93H44.5419V513.543Z" fill="white" stroke="#263238" stroke-width="1.25903" stroke-linecap="round" stroke-linejoin="round"/>
<path d="M44.5419 558.59H153.478V517.978H44.5419V558.59Z" fill="white" stroke="#263238" stroke-width="1.25903" stroke-linecap="round" stroke-linejoin="round"/>
<path d="M94.4676 448.266C94.4676 449.162 94.734 450.039 95.2331 450.784C95.7323 451.53 96.4417 452.111 97.2717 452.454C98.1018 452.797 99.0151 452.886 99.8963 452.712C100.777 452.537 101.587 452.105 102.222 451.471C102.857 450.837 103.29 450.029 103.465 449.15C103.641 448.271 103.551 447.36 103.207 446.531C102.863 445.703 102.281 444.995 101.534 444.497C100.787 443.999 99.9085 443.733 99.0101 443.733C98.4136 443.733 97.8229 443.85 97.2717 444.078C96.7206 444.306 96.2198 444.64 95.798 445.061C95.3762 445.482 95.0416 445.981 94.8134 446.531C94.5851 447.081 94.4676 447.671 94.4676 448.266Z" fill="white" stroke="#263238" stroke-width="1.25903" stroke-linecap="round" stroke-linejoin="round"/>
<path d="M94.4676 493.243C94.4648 494.141 94.7288 495.018 95.2263 495.766C95.7237 496.513 96.4322 497.096 97.262 497.441C98.0918 497.786 99.0056 497.878 99.8877 497.705C100.77 497.531 101.58 497.101 102.217 496.468C102.854 495.834 103.288 495.027 103.464 494.147C103.641 493.267 103.552 492.355 103.208 491.526C102.865 490.697 102.283 489.988 101.535 489.49C100.788 488.991 99.9091 488.725 99.0101 488.725C97.8078 488.725 96.6545 489.2 95.803 490.047C94.9515 490.894 94.4713 492.044 94.4676 493.243Z" fill="white" stroke="#263238" stroke-width="1.25903" stroke-linecap="round" stroke-linejoin="round"/>
<path d="M94.4676 538.291C94.4676 539.187 94.734 540.064 95.2331 540.809C95.7323 541.555 96.4417 542.136 97.2717 542.479C98.1018 542.822 99.0151 542.911 99.8963 542.737C100.777 542.562 101.587 542.13 102.222 541.496C102.857 540.862 103.29 540.054 103.465 539.175C103.641 538.296 103.551 537.385 103.207 536.556C102.863 535.728 102.281 535.02 101.534 534.522C100.787 534.024 99.9085 533.758 99.0101 533.758C98.4136 533.758 97.8229 533.875 97.2717 534.103C96.7206 534.331 96.2198 534.665 95.798 535.086C95.3762 535.507 95.0416 536.006 94.8134 536.556C94.5851 537.106 94.4676 537.696 94.4676 538.291Z" fill="white" stroke="#263238" stroke-width="1.25903" stroke-linecap="round" stroke-linejoin="round"/>
<path d="M581.905 103.694H539.593V362.592H581.905C584.97 362.593 588.005 361.993 590.838 360.824C593.67 359.654 596.243 357.94 598.411 355.778C600.579 353.616 602.298 351.049 603.472 348.224C604.645 345.399 605.249 342.371 605.249 339.312V126.973C605.249 123.915 604.645 120.887 603.472 118.062C602.298 115.236 600.579 112.669 598.411 110.507C596.243 108.346 593.67 106.631 590.838 105.462C588.005 104.293 584.97 103.692 581.905 103.694Z" fill="#263238" stroke="#263238" stroke-width="1.25903" stroke-linecap="round" stroke-linejoin="round"/>
<path d="M573.087 103.694H217.775C204.89 103.694 194.445 114.117 194.445 126.973V339.326C194.445 352.183 204.89 362.606 217.775 362.606H573.087C585.971 362.606 596.416 352.183 596.416 339.326V126.973C596.416 114.117 585.971 103.694 573.087 103.694Z" fill="white" stroke="#263238" stroke-width="1.25903" stroke-linecap="round" stroke-linejoin="round"/>
<path d="M564.899 112.466H561.296C557.889 112.466 555.127 115.222 555.127 118.621V122.217C555.127 125.616 557.889 128.372 561.296 128.372H564.899C568.306 128.372 571.068 125.616 571.068 122.217V118.621C571.068 115.222 568.306 112.466 564.899 112.466Z" fill="#999999" stroke="#263238" stroke-width="1.25903" stroke-linecap="round" stroke-linejoin="round"/>
<mask id="mask8_1_50" style="mask-type:luminance" maskUnits="userSpaceOnUse" x="215" y="112" width="17" height="17">
<path d="M231.57 120.426C231.57 122.001 231.102 123.541 230.225 124.85C229.348 126.159 228.101 127.18 226.643 127.782C225.184 128.384 223.579 128.541 222.031 128.232C220.484 127.924 219.062 127.165 217.947 126.05C216.832 124.935 216.073 123.516 215.767 121.97C215.461 120.425 215.621 118.824 216.227 117.37C216.833 115.916 217.857 114.674 219.171 113.801C220.485 112.928 222.029 112.463 223.607 112.466C224.654 112.466 225.691 112.672 226.658 113.072C227.625 113.472 228.503 114.059 229.243 114.798C229.983 115.538 230.569 116.415 230.968 117.381C231.368 118.347 231.572 119.381 231.57 120.426Z" fill="white"/>
</mask>
<g mask="url(#mask8_1_50)">
<path opacity="0.5" d="M231.57 120.426C231.57 122.001 231.102 123.541 230.225 124.85C229.348 126.159 228.101 127.18 226.643 127.782C225.184 128.384 223.579 128.541 222.031 128.232C220.484 127.924 219.062 127.165 217.947 126.05C216.832 124.935 216.073 123.516 215.767 121.97C215.461 120.425 215.621 118.824 216.227 117.37C216.833 115.916 217.857 114.674 219.171 113.801C220.485 112.928 222.029 112.463 223.607 112.466C224.654 112.466 225.691 112.672 226.658 113.072C227.625 113.472 228.503 114.059 229.243 114.798C229.983 115.538 230.569 116.415 230.968 117.381C231.368 118.347 231.572 119.381 231.57 120.426Z" fill="black"/>
</g>
<path d="M231.57 120.426C231.57 122.001 231.102 123.541 230.225 124.85C229.348 126.159 228.101 127.18 226.643 127.782C225.184 128.384 223.579 128.541 222.031 128.232C220.484 127.924 219.062 127.165 217.947 126.05C216.832 124.935 216.073 123.516 215.767 121.97C215.461 120.425 215.621 118.824 216.227 117.37C216.833 115.916 217.857 114.674 219.171 113.801C220.485 112.928 222.029 112.463 223.607 112.466C224.654 112.466 225.691 112.672 226.658 113.072C227.625 113.472 228.503 114.059 229.243 114.798C229.983 115.538 230.569 116.415 230.968 117.381C231.368 118.347 231.572 119.381 231.57 120.426Z" stroke="#263238" stroke-width="1.25903" stroke-linecap="round" stroke-linejoin="round"/>
<mask id="mask9_1_50" style="mask-type:luminance" maskUnits="userSpaceOnUse" x="265" y="112" width="17" height="17">
<path d="M273.14 128.386C277.546 128.386 281.118 124.822 281.118 120.426C281.118 116.03 277.546 112.466 273.14 112.466C268.734 112.466 265.163 116.03 265.163 120.426C265.163 124.822 268.734 128.386 273.14 128.386Z" fill="white"/>
</mask>
<g mask="url(#mask9_1_50)">
<path opacity="0.5" d="M273.14 128.386C277.546 128.386 281.118 124.822 281.118 120.426C281.118 116.03 277.546 112.466 273.14 112.466C268.734 112.466 265.163 116.03 265.163 120.426C265.163 124.822 268.734 128.386 273.14 128.386Z" fill="white" stroke="#263238" stroke-width="1.25903" stroke-linecap="round" stroke-linejoin="round"/>
</g>
<path d="M273.14 128.386C277.546 128.386 281.118 124.822 281.118 120.426C281.118 116.03 277.546 112.466 273.14 112.466C268.734 112.466 265.163 116.03 265.163 120.426C265.163 124.822 268.734 128.386 273.14 128.386Z" stroke="#263238" stroke-width="1.25903" stroke-linecap="round" stroke-linejoin="round"/>
<path d="M248.367 128.386C252.772 128.386 256.344 124.822 256.344 120.426C256.344 116.03 252.772 112.466 248.367 112.466C243.961 112.466 240.389 116.03 240.389 120.426C240.389 124.822 243.961 128.386 248.367 128.386Z" stroke="#263238" stroke-width="1.25903" stroke-linecap="round" stroke-linejoin="round"/>
<path d="M573.087 137.158H217.789C210.75 137.158 205.044 142.851 205.044 149.875V339.312C205.044 346.336 210.75 352.029 217.789 352.029H573.087C580.125 352.029 585.831 346.336 585.831 339.312V149.875C585.831 142.851 580.125 137.158 573.087 137.158Z" fill="white"/>
<mask id="mask10_1_50" style="mask-type:luminance" maskUnits="userSpaceOnUse" x="205" y="137" width="381" height="216">
<path d="M573.087 137.158H217.789C210.75 137.158 205.044 142.851 205.044 149.875V339.312C205.044 346.336 210.75 352.029 217.789 352.029H573.087C580.125 352.029 585.831 346.336 585.831 339.312V149.875C585.831 142.851 580.125 137.158 573.087 137.158Z" fill="white"/>
</mask>
<g mask="url(#mask10_1_50)">
<path opacity="0.3" d="M573.087 137.158H217.789C210.75 137.158 205.044 142.851 205.044 149.875V339.312C205.044 346.336 210.75 352.029 217.789 352.029H573.087C580.125 352.029 585.831 346.336 585.831 339.312V149.875C585.831 142.851 580.125 137.158 573.087 137.158Z" fill="black"/>
</g>
<path d="M573.087 137.158H217.789C210.75 137.158 205.044 142.851 205.044 149.875V339.312C205.044 346.336 210.75 352.029 217.789 352.029H573.087C580.125 352.029 585.831 346.336 585.831 339.312V149.875C585.831 142.851 580.125 137.158 573.087 137.158Z" stroke="#263238" stroke-width="1.25903" stroke-linecap="round" stroke-linejoin="round"/>
<path d="M314.149 145.958H217.775C215.614 145.958 213.863 147.705 213.863 149.861V339.312C213.863 341.468 215.614 343.216 217.775 343.216H314.149C316.309 343.216 318.061 341.468 318.061 339.312V149.861C318.061 147.705 316.309 145.958 314.149 145.958Z" fill="#999999" stroke="#263238" stroke-width="1.25903" stroke-linecap="round" stroke-linejoin="round"/>
<path d="M449.191 145.958H340.451C338.29 145.958 336.539 147.705 336.539 149.861V339.312C336.539 341.468 338.29 343.216 340.451 343.216H449.191C451.351 343.216 453.103 341.468 453.103 339.312V149.861C453.103 147.705 451.351 145.958 449.191 145.958Z" fill="white"/>
<mask id="mask11_1_50" style="mask-type:luminance" maskUnits="userSpaceOnUse" x="336" y="145" width="118" height="199">
<path d="M449.191 145.958H340.451C338.29 145.958 336.539 147.705 336.539 149.861V339.312C336.539 341.468 338.29 343.216 340.451 343.216H449.191C451.351 343.216 453.103 341.468 453.103 339.312V149.861C453.103 147.705 451.351 145.958 449.191 145.958Z" fill="white"/>
</mask>
<g mask="url(#mask11_1_50)">
<path opacity="0.8" d="M449.191 145.958H340.451C338.29 145.958 336.539 147.705 336.539 149.861V339.312C336.539 341.468 338.29 343.216 340.451 343.216H449.191C451.351 343.216 453.103 341.468 453.103 339.312V149.861C453.103 147.705 451.351 145.958 449.191 145.958Z" fill="white"/>
</g>
<path d="M449.191 145.958H340.451C338.29 145.958 336.539 147.705 336.539 149.861V339.312C336.539 341.468 338.29 343.216 340.451 343.216H449.191C451.351 343.216 453.103 341.468 453.103 339.312V149.861C453.103 147.705 451.351 145.958 449.191 145.958Z" stroke="#263238" stroke-width="1.25903" stroke-linecap="round" stroke-linejoin="round"/>
<path d="M567.507 145.958H479.615C478.669 145.961 477.763 146.339 477.096 147.007C476.428 147.676 476.053 148.581 476.053 149.525V160.269H571.068V149.525C571.068 148.581 570.693 147.676 570.026 147.007C569.358 146.339 568.453 145.961 567.507 145.958Z" fill="white" stroke="#263238" stroke-width="1.25903" stroke-linecap="round" stroke-linejoin="round"/>
<path d="M559.081 150.281H567.549" stroke="#263238" stroke-width="1.25903" stroke-linecap="round" stroke-linejoin="round"/>
<path d="M559.081 153.106H567.549" stroke="#263238" stroke-width="1.25903" stroke-linecap="round" stroke-linejoin="round"/>
<path d="M567.549 155.918H559.081" stroke="#263238" stroke-width="1.25903" stroke-linecap="round" stroke-linejoin="round"/>
<path d="M523.568 160.269L521.367 151.358C520.984 149.817 520.096 148.447 518.843 147.469C517.591 146.49 516.046 145.958 514.455 145.958H479.615C478.669 145.961 477.763 146.339 477.096 147.007C476.428 147.676 476.053 148.581 476.053 149.525V203.204C476.053 204.147 476.429 205.051 477.097 205.717C477.764 206.383 478.67 206.758 479.615 206.758H567.507C568.451 206.758 569.357 206.383 570.025 205.717C570.693 205.051 571.068 204.147 571.068 203.204V160.269H523.568Z" fill="#999999" stroke="#263238" stroke-width="1.25903" stroke-linecap="round" stroke-linejoin="round"/>
<path d="M212.377 331.59H248.997C249.825 331.59 250.484 331.24 250.484 330.806V292.894C250.484 292.46 249.825 292.11 248.997 292.11H212.377C211.564 292.11 210.891 292.46 210.891 292.894V330.751C210.891 331.24 211.522 331.59 212.377 331.59Z" fill="white"/>
<mask id="mask12_1_50" style="mask-type:luminance" maskUnits="userSpaceOnUse" x="210" y="292" width="41" height="40">
<path d="M212.377 331.59H248.997C249.825 331.59 250.484 331.24 250.484 330.806V292.894C250.484 292.46 249.825 292.11 248.997 292.11H212.377C211.564 292.11 210.891 292.46 210.891 292.894V330.751C210.891 331.24 211.522 331.59 212.377 331.59Z" fill="white"/>
</mask>
<g mask="url(#mask12_1_50)">
<path opacity="0.3" d="M212.377 331.59H248.997C249.825 331.59 250.484 331.24 250.484 330.806V292.894C250.484 292.46 249.825 292.11 248.997 292.11H212.377C211.564 292.11 210.891 292.46 210.891 292.894V330.751C210.891 331.24 211.522 331.59 212.377 331.59Z" fill="black"/>
</g>
<path d="M212.377 331.59H248.997C249.825 331.59 250.484 331.24 250.484 330.806V292.894C250.484 292.46 249.825 292.11 248.997 292.11H212.377C211.564 292.11 210.891 292.46 210.891 292.894V330.751C210.891 331.24 211.522 331.59 212.377 331.59Z" stroke="#263238" stroke-width="1.25903" stroke-linecap="round" stroke-linejoin="round"/>
<path d="M258.223 331.59H294.843C295.656 331.59 296.329 331.24 296.329 330.806V292.894C296.329 292.46 295.656 292.11 294.843 292.11H258.223C257.396 292.11 256.737 292.46 256.737 292.894V330.751C256.737 331.24 257.396 331.59 258.223 331.59Z" fill="white" stroke="#263238" stroke-width="1.25903" stroke-linecap="round" stroke-linejoin="round"/>
<path d="M230.028 285.591H266.649C267.476 285.591 268.135 285.241 268.135 284.808V246.895C268.135 246.461 267.476 246.111 266.649 246.111H230.028C229.215 246.111 228.542 246.461 228.542 246.895V284.808C228.542 285.241 229.215 285.591 230.028 285.591Z" fill="white" stroke="#263238" stroke-width="1.25903" stroke-linecap="round" stroke-linejoin="round"/>
<path d="M275.874 285.591H312.467C313.28 285.591 313.953 285.241 313.953 284.808V246.895C313.953 246.461 313.28 246.111 312.467 246.111H275.874C275.047 246.111 274.388 246.461 274.388 246.895V284.808C274.388 285.241 275.047 285.591 275.874 285.591Z" fill="white" stroke="#263238" stroke-width="1.25903" stroke-linecap="round" stroke-linejoin="round"/>
<path d="M226.495 239.592H263.116C263.943 239.592 264.616 239.242 264.616 238.809V200.896C264.616 200.462 263.943 200.113 263.116 200.113H226.495C225.682 200.113 225.009 200.462 225.009 200.896V238.809C225.009 239.242 225.682 239.592 226.495 239.592Z" fill="white"/>
<mask id="mask13_1_50" style="mask-type:luminance" maskUnits="userSpaceOnUse" x="225" y="200" width="40" height="40">
<path d="M226.495 239.592H263.116C263.943 239.592 264.616 239.242 264.616 238.809V200.896C264.616 200.462 263.943 200.113 263.116 200.113H226.495C225.682 200.113 225.009 200.462 225.009 200.896V238.809C225.009 239.242 225.682 239.592 226.495 239.592Z" fill="white"/>
</mask>
<g mask="url(#mask13_1_50)">
<path opacity="0.5" d="M226.495 239.592H263.116C263.943 239.592 264.616 239.242 264.616 238.809V200.896C264.616 200.462 263.943 200.113 263.116 200.113H226.495C225.682 200.113 225.009 200.462 225.009 200.896V238.809C225.009 239.242 225.682 239.592 226.495 239.592Z" fill="white"/>
</g>
<path d="M226.495 239.592H263.116C263.943 239.592 264.616 239.242 264.616 238.809V200.896C264.616 200.462 263.943 200.113 263.116 200.113H226.495C225.682 200.113 225.009 200.462 225.009 200.896V238.809C225.009 239.242 225.682 239.592 226.495 239.592Z" stroke="#263238" stroke-width="1.25903" stroke-linecap="round" stroke-linejoin="round"/>
<path d="M272.341 239.592H308.962C309.789 239.592 310.448 239.242 310.448 238.809V200.896C310.448 200.462 309.789 200.113 308.962 200.113H272.341C271.514 200.113 270.855 200.462 270.855 200.896V238.809C270.855 239.242 271.514 239.592 272.341 239.592Z" fill="white" stroke="#263238" stroke-width="1.25903" stroke-linecap="round" stroke-linejoin="round"/>
<path d="M226.495 193.649H263.116C263.943 193.649 264.616 193.3 264.616 192.866V154.897C264.616 154.464 263.943 154.114 263.116 154.114H226.495C225.682 154.114 225.009 154.464 225.009 154.897V192.81C225.009 193.244 225.682 193.649 226.495 193.649Z" fill="white" stroke="#263238" stroke-width="1.25903" stroke-linecap="round" stroke-linejoin="round"/>
<path d="M272.341 193.649H308.962C309.789 193.649 310.448 193.3 310.448 192.866V154.897C310.448 154.464 309.789 154.114 308.962 154.114H272.341C271.514 154.114 270.855 154.464 270.855 154.897V192.81C270.855 193.244 271.514 193.649 272.341 193.649Z" fill="white"/>
<mask id="mask14_1_50" style="mask-type:luminance" maskUnits="userSpaceOnUse" x="270" y="154" width="41" height="40">
<path d="M272.341 193.649H308.962C309.789 193.649 310.448 193.3 310.448 192.866V154.897C310.448 154.464 309.789 154.114 308.962 154.114H272.341C271.514 154.114 270.855 154.464 270.855 154.897V192.81C270.855 193.244 271.514 193.649 272.341 193.649Z" fill="white"/>
</mask>
<g mask="url(#mask14_1_50)">
<path opacity="0.7" d="M272.341 193.649H308.962C309.789 193.649 310.448 193.3 310.448 192.866V154.897C310.448 154.464 309.789 154.114 308.962 154.114H272.341C271.514 154.114 270.855 154.464 270.855 154.897V192.81C270.855 193.244 271.514 193.649 272.341 193.649Z" fill="white"/>
</g>
<path d="M272.341 193.649H308.962C309.789 193.649 310.448 193.3 310.448 192.866V154.897C310.448 154.464 309.789 154.114 308.962 154.114H272.341C271.514 154.114 270.855 154.464 270.855 154.897V192.81C270.855 193.244 271.514 193.649 272.341 193.649Z" stroke="#263238" stroke-width="1.25903" stroke-linecap="round" stroke-linejoin="round"/>
<path d="M559.74 297.175H471.861C470.916 297.182 470.01 297.56 469.342 298.228C468.673 298.895 468.294 299.798 468.286 300.742V354.533C468.286 355.002 468.379 355.466 468.558 355.899C468.738 356.331 469.001 356.725 469.333 357.056C469.665 357.387 470.06 357.65 470.493 357.829C470.927 358.009 471.392 358.101 471.861 358.101H559.74C560.687 358.097 561.594 357.72 562.264 357.052C562.933 356.384 563.311 355.478 563.315 354.533V300.784C563.318 300.313 563.229 299.845 563.051 299.408C562.873 298.971 562.611 298.574 562.278 298.238C561.946 297.903 561.551 297.637 561.115 297.454C560.68 297.271 560.212 297.177 559.74 297.175Z" fill="#263238" stroke="#263238" stroke-width="1.25903" stroke-linecap="round" stroke-linejoin="round"/>
<path d="M553.823 295.468H465.945C464.999 295.468 464.092 295.842 463.422 296.508C462.752 297.174 462.374 298.078 462.37 299.021V309.766H557.398V299.021C557.395 298.078 557.016 297.174 556.346 296.508C555.676 295.842 554.769 295.468 553.823 295.468Z" fill="white" stroke="#263238" stroke-width="1.25903" stroke-linecap="round" stroke-linejoin="round"/>
<path d="M545.397 299.805H553.865" stroke="#263238" stroke-width="1.25903" stroke-linecap="round" stroke-linejoin="round"/>
<path d="M545.397 302.617H553.865" stroke="#263238" stroke-width="1.25903" stroke-linecap="round" stroke-linejoin="round"/>
<path d="M553.865 305.429H545.397" stroke="#263238" stroke-width="1.25903" stroke-linecap="round" stroke-linejoin="round"/>
<path d="M509.884 309.766L507.697 300.868C507.315 299.327 506.427 297.958 505.174 296.979C503.921 296 502.376 295.468 500.785 295.468H465.945C464.999 295.468 464.092 295.842 463.422 296.508C462.752 297.174 462.374 298.078 462.37 299.021V352.701C462.374 353.646 462.751 354.551 463.421 355.219C464.091 355.887 464.998 356.264 465.945 356.268H553.823C554.771 356.268 555.681 355.892 556.351 355.223C557.022 354.554 557.398 353.647 557.398 352.701V309.766H509.884Z" fill="#999999" stroke="#263238" stroke-width="1.25903" stroke-linecap="round" stroke-linejoin="round"/>
<path d="M556.192 215.921H468.3C467.712 215.906 467.129 216.036 466.603 216.3C466.077 216.563 465.625 216.952 465.286 217.432C464.893 218.025 464.683 218.721 464.683 219.433V273.098C464.683 274.042 465.058 274.947 465.725 275.616C466.393 276.284 467.298 276.662 468.244 276.665H556.136C557.082 276.662 557.988 276.284 558.655 275.616C559.323 274.947 559.698 274.042 559.698 273.098V219.489C559.698 218.555 559.331 217.658 558.675 216.991C558.02 216.323 557.128 215.94 556.192 215.921Z" fill="#263238" stroke="#263238" stroke-width="1.25903" stroke-linecap="round" stroke-linejoin="round"/>
<path d="M553.823 213.347H465.945C464.999 213.347 464.092 213.721 463.422 214.387C462.752 215.053 462.374 215.957 462.37 216.9V227.645H557.398V216.9C557.395 215.957 557.016 215.053 556.346 214.387C555.676 213.721 554.769 213.347 553.823 213.347Z" fill="white" stroke="#263238" stroke-width="1.25903" stroke-linecap="round" stroke-linejoin="round"/>
<path d="M545.397 217.684H553.865" stroke="#263238" stroke-width="1.25903" stroke-linecap="round" stroke-linejoin="round"/>
<path d="M545.397 220.496H553.865" stroke="#263238" stroke-width="1.25903" stroke-linecap="round" stroke-linejoin="round"/>
<path d="M553.865 223.308H545.397" stroke="#263238" stroke-width="1.25903" stroke-linecap="round" stroke-linejoin="round"/>
<path d="M509.884 227.645L507.697 218.747C507.315 217.206 506.427 215.837 505.174 214.858C503.921 213.879 502.376 213.347 500.785 213.347H465.945C464.999 213.347 464.092 213.721 463.422 214.387C462.752 215.053 462.374 215.957 462.37 216.9V270.594C462.37 271.54 462.746 272.447 463.417 273.116C464.087 273.785 464.997 274.161 465.945 274.161H553.823C554.771 274.161 555.681 273.785 556.351 273.116C557.022 272.447 557.398 271.54 557.398 270.594V227.645H509.884Z" fill="#999999" stroke="#263238" stroke-width="1.25903" stroke-linecap="round" stroke-linejoin="round"/>
<path d="M224.35 378.736H260.971C261.798 378.736 262.457 378.386 262.457 377.952V340.04C262.457 339.606 261.798 339.256 260.971 339.256H224.35C223.537 339.256 222.864 339.606 222.864 340.04V377.952C222.864 378.386 223.537 378.736 224.35 378.736Z" fill="white" stroke="#263238" stroke-width="1.25903" stroke-linecap="round" stroke-linejoin="round"/>
<path d="M506.323 342.754H418.431C417.483 342.754 416.573 343.13 415.903 343.799C415.232 344.468 414.856 345.375 414.856 346.321V357.051H509.884V346.321C509.884 345.378 509.509 344.472 508.842 343.804C508.174 343.135 507.269 342.757 506.323 342.754Z" fill="white" stroke="#263238" stroke-width="1.25903" stroke-linecap="round" stroke-linejoin="round"/>
<path d="M497.883 347.091H506.351" stroke="#263238" stroke-width="1.25903" stroke-linecap="round" stroke-linejoin="round"/>
<path d="M497.883 349.903H506.351" stroke="#263238" stroke-width="1.25903" stroke-linecap="round" stroke-linejoin="round"/>
<path d="M506.351 352.715H497.883" stroke="#263238" stroke-width="1.25903" stroke-linecap="round" stroke-linejoin="round"/>
<path d="M462.37 357.051L460.183 348.154C459.801 346.613 458.912 345.244 457.66 344.265C456.407 343.286 454.862 342.754 453.271 342.754H418.431C417.483 342.754 416.573 343.13 415.903 343.799C415.232 344.468 414.856 345.375 414.856 346.321V399.987C414.856 400.933 415.232 401.84 415.903 402.509C416.573 403.178 417.483 403.554 418.431 403.554H506.323C507.269 403.55 508.174 403.173 508.842 402.504C509.509 401.836 509.884 400.93 509.884 399.987V357.051H462.37Z" fill="#999999" stroke="#263238" stroke-width="1.25903" stroke-linecap="round" stroke-linejoin="round"/>
<path d="M571.068 93.6633H577.685" stroke="#263238" stroke-width="1.25903" stroke-linecap="round" stroke-linejoin="round"/>
<path d="M545.397 93.6633H563.315" stroke="#263238" stroke-width="1.25903" stroke-linecap="round" stroke-linejoin="round"/>
<path d="M352.648 93.6633H529.751" stroke="#263238" stroke-width="1.25903" stroke-linecap="round" stroke-linejoin="round"/>
<path d="M332.642 93.6633H343.227" stroke="#263238" stroke-width="1.25903" stroke-linecap="round" stroke-linejoin="round"/>
<path d="M432.619 308.087C432.731 306.688 432.801 305.289 432.801 303.89C432.801 302.491 432.731 301.092 432.619 299.693L419.58 298.014C418.894 293.072 417.342 288.29 414.996 283.884L424.628 274.791C423.13 272.378 421.452 270.082 419.608 267.922L408.056 274.203C404.585 270.614 400.514 267.656 396.027 265.46L398.452 252.561C395.823 251.48 393.114 250.605 390.348 249.945L384.74 261.808C379.821 260.931 374.785 260.931 369.865 261.808L364.257 249.945C361.492 250.605 358.782 251.48 356.153 252.561L358.579 265.46C354.091 267.656 350.021 270.614 346.549 274.203L334.899 267.894C333.039 270.058 331.352 272.364 329.852 274.791L339.413 283.8C337.056 288.202 335.499 292.986 334.815 297.93L321.776 299.609C321.664 301.008 321.594 302.407 321.594 303.806C321.594 305.205 321.664 306.604 321.776 308.003L334.815 309.696C335.501 314.635 337.058 319.414 339.413 323.811L329.852 332.835C331.339 335.25 333.013 337.547 334.857 339.704L346.409 333.409C349.877 337.002 353.948 339.961 358.439 342.152L356.013 355.051C358.642 356.137 361.351 357.016 364.117 357.681L369.725 345.804C374.644 346.68 379.681 346.68 384.6 345.804L390.208 357.681C392.974 357.016 395.683 356.137 398.312 355.051L395.886 342.152C400.377 339.961 404.448 337.002 407.916 333.409L419.468 339.704C421.312 337.544 422.99 335.247 424.487 332.835L414.926 323.811C417.287 319.436 418.862 314.683 419.58 309.766L432.619 308.087ZM377.198 272.133C382.067 272.141 386.868 273.269 391.23 275.428C395.592 277.587 399.397 280.72 402.35 284.584L381.908 293.999C380.437 293.299 378.827 292.936 377.198 292.936C375.568 292.936 373.958 293.299 372.487 293.999L352.045 284.584C354.999 280.722 358.804 277.59 363.166 275.431C367.528 273.272 372.329 272.143 377.198 272.133ZM345.428 303.834C345.427 299.742 346.222 295.69 347.769 291.9L366.262 304.911C366.417 306.476 366.908 307.99 367.701 309.349C368.495 310.708 369.572 311.881 370.86 312.787L372.907 335.171C365.305 334.143 358.333 330.403 353.281 324.642C348.23 318.881 345.44 311.489 345.428 303.834ZM381.488 335.213L383.535 312.829C384.826 311.926 385.905 310.754 386.699 309.394C387.493 308.034 387.982 306.519 388.133 304.953L406.626 291.942C408.462 296.42 409.246 301.257 408.917 306.084C408.587 310.91 407.154 315.597 404.727 319.785C402.299 323.973 398.943 327.549 394.914 330.241C390.886 332.932 386.293 334.667 381.488 335.311V335.213Z" fill="#263238" stroke="#263238" stroke-width="1.25903" stroke-linecap="round" stroke-linejoin="round"/>
<path d="M381.824 303.834C381.827 304.748 381.558 305.642 381.051 306.403C380.545 307.164 379.823 307.758 378.978 308.109C378.133 308.461 377.202 308.554 376.304 308.378C375.405 308.201 374.579 307.762 373.931 307.117C373.283 306.472 372.841 305.65 372.661 304.754C372.481 303.858 372.572 302.929 372.922 302.084C373.271 301.24 373.864 300.518 374.626 300.01C375.387 299.502 376.282 299.231 377.198 299.231C378.422 299.231 379.597 299.716 380.464 300.578C381.331 301.441 381.82 302.612 381.824 303.834Z" fill="white" stroke="#263238" stroke-width="1.25903" stroke-linecap="round" stroke-linejoin="round"/>
<path d="M432.437 212.438C432.521 211.43 432.563 210.423 432.563 209.388C432.563 208.353 432.563 207.359 432.437 206.352L423.113 205.149C422.625 201.616 421.514 198.196 419.833 195.048L426.675 188.599C425.604 186.874 424.405 185.232 423.085 183.688L414.814 188.193C412.334 185.621 409.42 183.504 406.205 181.94L407.944 172.706C406.077 171.944 404.155 171.322 402.195 170.846L398.158 179.324C394.639 178.689 391.035 178.689 387.516 179.324L383.493 170.846C381.505 171.303 379.555 171.911 377.66 172.664L379.399 181.898C376.188 183.462 373.278 185.579 370.804 188.151L362.546 183.646C361.223 185.187 360.023 186.829 358.957 188.557L365.743 195.048C364.068 198.199 362.958 201.617 362.462 205.149L353.139 206.352C353.069 207.359 353.013 208.367 353.013 209.388C353.013 210.409 353.013 211.43 353.139 212.438L362.462 213.641C362.958 217.173 364.068 220.591 365.743 223.742L358.915 230.191C359.984 231.912 361.184 233.549 362.504 235.087L370.762 230.597C373.244 233.161 376.152 235.276 379.357 236.85L377.618 246.07C379.5 246.847 381.441 247.474 383.422 247.944L387.446 239.466C390.967 240.081 394.567 240.081 398.088 239.466L402.125 247.944C404.102 247.472 406.038 246.845 407.916 246.07L406.177 236.85C409.386 235.276 412.299 233.161 414.785 230.597L423.043 235.087C424.359 233.546 425.559 231.909 426.632 230.191L419.791 223.742C421.472 220.594 422.583 217.174 423.071 213.641L432.437 212.438ZM392.816 186.724C396.292 186.726 399.721 187.525 402.838 189.061C405.954 190.596 408.675 192.827 410.79 195.58L396.181 202.309C395.129 201.811 393.98 201.553 392.816 201.553C391.652 201.553 390.503 201.811 389.451 202.309L374.828 195.58C376.945 192.826 379.668 190.595 382.787 189.059C385.906 187.523 389.338 186.725 392.816 186.724ZM370.089 209.388C370.089 206.461 370.661 203.563 371.772 200.854L384.993 210.157C385.106 211.272 385.459 212.349 386.027 213.315C386.596 214.28 387.367 215.112 388.287 215.753L389.689 231.786C384.265 231.037 379.295 228.358 375.694 224.243C372.092 220.127 370.102 214.852 370.089 209.388ZM395.872 231.772L397.344 215.739C398.261 215.094 399.029 214.261 399.597 213.296C400.166 212.331 400.521 211.256 400.639 210.143L413.846 200.84C415.155 204.039 415.713 207.495 415.476 210.943C415.238 214.391 414.213 217.738 412.477 220.729C410.742 223.719 408.343 226.273 405.464 228.195C402.586 230.116 399.305 231.354 395.872 231.814V231.772Z" fill="#757575" stroke="#263238" stroke-width="1.25903" stroke-linecap="round" stroke-linejoin="round"/>
<path d="M392.816 212.69C394.643 212.69 396.125 211.211 396.125 209.388C396.125 207.564 394.643 206.086 392.816 206.086C390.989 206.086 389.507 207.564 389.507 209.388C389.507 211.211 390.989 212.69 392.816 212.69Z" fill="white" stroke="#263238" stroke-width="1.25903" stroke-linecap="round" stroke-linejoin="round"/>
<path d="M330.791 345.062C330.791 344.391 330.889 343.663 330.889 343.048C330.889 342.432 330.889 341.649 330.791 341.019L324.58 340.208C324.257 337.853 323.516 335.574 322.393 333.478L326.949 329.184C326.24 328.033 325.443 326.939 324.566 325.91L319.056 328.904C317.402 327.184 315.462 325.764 313.322 324.707L314.471 318.565C313.222 318.043 311.933 317.622 310.616 317.306L307.924 322.902C306.754 322.688 305.567 322.58 304.377 322.58C303.187 322.581 302 322.689 300.83 322.902L298.152 317.306C296.831 317.624 295.537 318.045 294.282 318.565L295.446 324.707C293.304 325.761 291.363 327.181 289.712 328.904L284.202 325.91C283.32 326.935 282.523 328.03 281.819 329.184L286.375 333.478C285.247 335.573 284.502 337.852 284.174 340.208L277.963 341.019C277.963 341.691 277.879 342.418 277.879 343.048C277.879 343.677 277.879 344.447 277.963 345.062L284.174 345.874C284.502 348.229 285.247 350.508 286.375 352.603L281.805 356.898C282.519 358.048 283.32 359.143 284.202 360.171L289.712 357.177C291.359 358.904 293.301 360.325 295.446 361.374L294.282 367.516C295.537 368.036 296.831 368.457 298.152 368.775L300.83 363.109C302 363.322 303.187 363.43 304.377 363.431C305.567 363.431 306.754 363.323 307.924 363.109L310.616 368.775C311.933 368.459 313.222 368.038 314.471 367.516L313.322 361.374C315.465 360.322 317.406 358.901 319.056 357.177L324.566 360.171C325.443 359.142 326.24 358.048 326.949 356.898L322.393 352.603C323.516 350.507 324.257 348.228 324.58 345.874L330.791 345.062ZM304.377 327.952C306.695 327.951 308.983 328.483 311.062 329.507C313.141 330.531 314.955 332.019 316.364 333.856L306.62 338.347C305.92 338.013 305.153 337.841 304.377 337.843C303.601 337.844 302.835 338.016 302.134 338.347L292.39 333.856C293.801 332.022 295.616 330.535 297.694 329.511C299.773 328.488 302.059 327.954 304.377 327.952ZM289.235 343.076C289.236 341.123 289.617 339.189 290.357 337.382L299.161 343.579C299.238 344.327 299.473 345.05 299.853 345.699C300.233 346.348 300.748 346.909 301.363 347.342L302.344 358.031C298.712 357.54 295.381 355.75 292.97 352.995C290.56 350.24 289.233 346.705 289.235 343.048V343.076ZM306.424 358.031L307.405 347.342C308.018 346.908 308.531 346.347 308.908 345.698C309.286 345.049 309.519 344.326 309.592 343.579L318.411 337.382C319.278 339.515 319.645 341.818 319.484 344.115C319.323 346.412 318.638 348.641 317.482 350.633C316.325 352.626 314.728 354.328 312.811 355.61C310.895 356.892 308.71 357.72 306.424 358.031Z" fill="white" stroke="#263238" stroke-width="1.25903" stroke-linecap="round" stroke-linejoin="round"/>
<path d="M306.578 343.048C306.578 343.482 306.449 343.907 306.207 344.268C305.965 344.629 305.622 344.911 305.219 345.077C304.817 345.243 304.375 345.287 303.948 345.202C303.521 345.117 303.128 344.908 302.821 344.601C302.513 344.294 302.303 343.902 302.218 343.476C302.133 343.05 302.177 342.608 302.343 342.207C302.51 341.806 302.792 341.463 303.154 341.221C303.516 340.98 303.942 340.851 304.377 340.851C304.961 340.851 305.521 341.083 305.933 341.495C306.346 341.906 306.578 342.465 306.578 343.048Z" stroke="#263238" stroke-width="1.25903" stroke-linecap="round" stroke-linejoin="round"/>
<path d="M138.393 355.597L203.516 350.224L169.559 484.947L118.176 565.389L97.4539 554.589C97.4539 554.589 121.597 495.328 139.248 473.602C139.248 473.602 143.005 430.583 146.426 408.059C146.426 408.059 140.019 376.595 138.393 355.597Z" fill="#858585"/>
<mask id="mask15_1_50" style="mask-type:luminance" maskUnits="userSpaceOnUse" x="97" y="350" width="107" height="216">
<path d="M138.393 355.597L203.516 350.224L169.559 484.947L118.176 565.389L97.4539 554.589C97.4539 554.589 121.597 495.328 139.248 473.602C139.248 473.602 143.005 430.583 146.426 408.059C146.426 408.059 140.019 376.595 138.393 355.597Z" fill="white"/>
</mask>
<g mask="url(#mask15_1_50)">
<path d="M183.636 351.861L155.441 354.184C155.441 354.184 153.198 383.325 174.817 405.499L184.883 424.119L194.908 384.332L183.636 351.861Z" fill="#263238" stroke="#263238" stroke-width="1.25903" stroke-linecap="round" stroke-linejoin="round"/>
</g>
<path d="M138.393 355.597L203.516 350.224L169.559 484.947L118.176 565.389L97.4539 554.589C97.4539 554.589 121.597 495.328 139.248 473.602C139.248 473.602 143.005 430.583 146.426 408.059C146.426 408.059 140.019 376.595 138.393 355.597Z" stroke="#263238" stroke-width="1.25903" stroke-linecap="round" stroke-linejoin="round"/>
<path d="M138.617 483.311C137.398 483.976 136.279 484.809 135.294 485.787" stroke="#263238" stroke-width="1.25903" stroke-linecap="round" stroke-linejoin="round"/>
<path d="M143.664 473.014C143.664 473.014 156.366 470.804 158.988 479.617C161.049 486.514 151.796 480.023 142.655 481.884" stroke="#263238" stroke-width="1.25903" stroke-linecap="round" stroke-linejoin="round"/>
<path d="M159.002 355.499L211.045 347.958L245.002 454.477L273.407 550.392L250.049 559.486C250.049 559.486 222.541 500.14 216.204 467.81C216.204 467.81 190.814 424.665 181.799 403.946C174.645 398.055 168.89 390.654 164.948 382.277C161.006 373.899 158.975 364.754 159.002 355.499Z" fill="#999999" stroke="#263238" stroke-width="1.25903" stroke-linecap="round" stroke-linejoin="round"/>
<path d="M207.077 403.092C209.35 403.349 211.521 404.177 213.386 405.499" stroke="#263238" stroke-width="1.25903" stroke-linecap="round" stroke-linejoin="round"/>
<path d="M202.212 390.809C198.455 393.985 183.383 395.244 186.916 401.386C189.019 405.037 194.88 403.498 201.147 403.036" stroke="#263238" stroke-width="1.25903" stroke-linecap="round" stroke-linejoin="round"/>
<path d="M219.681 465.529C219.681 465.529 227.364 460.675 233.547 465.529" stroke="#263238" stroke-width="1.25903" stroke-linecap="round" stroke-linejoin="round"/>
<path d="M124.835 597.147L80.0549 571.825L81.2887 568.901L83.0692 569.433C83.0692 569.433 85.9714 565.236 93.1777 556.45C95.1822 550.207 98.1786 544.327 102.052 539.032C102.052 539.032 130.471 548.028 125.887 558.716L119.816 569.279C122.594 573.966 125.636 578.492 128.929 582.835C128.929 582.835 135.603 587.116 137.341 587.48C138.134 587.597 138.892 587.883 139.564 588.318C140.236 588.752 140.808 589.325 141.239 589.999C141.671 590.672 141.953 591.43 142.067 592.221C142.18 593.013 142.123 593.819 141.898 594.586L143.622 594.95L142.529 598L124.835 597.147Z" fill="white" stroke="#263238" stroke-width="1.25903" stroke-linecap="round" stroke-linejoin="round"/>
<path d="M111.979 542.992C108.743 541.474 105.419 540.152 102.024 539.032C98.1506 544.327 95.1542 550.207 93.1497 556.45C105.137 563.865 111.979 542.992 111.979 542.992Z" fill="white"/>
<mask id="mask16_1_50" style="mask-type:luminance" maskUnits="userSpaceOnUse" x="93" y="539" width="19" height="20">
<path d="M111.979 542.992C108.743 541.474 105.419 540.152 102.024 539.032C98.1506 544.327 95.1542 550.207 93.1497 556.45C105.137 563.865 111.979 542.992 111.979 542.992Z" fill="white"/>
</mask>
<g mask="url(#mask16_1_50)">
<path opacity="0.5" d="M111.979 542.992C108.743 541.474 105.419 540.152 102.024 539.032C98.1506 544.327 95.1542 550.207 93.1497 556.45C105.137 563.865 111.979 542.992 111.979 542.992Z" fill="black"/>
</g>
<path d="M111.979 542.992C108.743 541.474 105.419 540.152 102.024 539.032C98.1506 544.327 95.1542 550.207 93.1497 556.45C105.137 563.865 111.979 542.992 111.979 542.992Z" stroke="#263238" stroke-width="1.25903" stroke-linecap="round" stroke-linejoin="round"/>
<path d="M121.386 571.671C120.663 572.728 119.669 573.571 118.507 574.112C117.345 574.654 116.059 574.874 114.783 574.749" stroke="#263238" stroke-width="1.25903" stroke-linecap="round" stroke-linejoin="round"/>
<path d="M123.924 575.476C123.924 575.476 123.265 578.54 118.456 579.883" stroke="#263238" stroke-width="1.25903" stroke-linecap="round" stroke-linejoin="round"/>
<path d="M126.49 579.309C126.49 579.309 127.345 582.303 122.171 585.073" stroke="#263238" stroke-width="1.25903" stroke-linecap="round" stroke-linejoin="round"/>
<path d="M129.981 593.481L138.673 594.111" stroke="#263238" stroke-width="1.25903" stroke-linecap="round" stroke-linejoin="round"/>
<path d="M91.2991 574.105L125.031 593.118L128.074 589.256" stroke="#263238" stroke-width="1.25903" stroke-linecap="round" stroke-linejoin="round"/>
<path d="M86.1537 571.209L88.481 572.524" stroke="#263238" stroke-width="1.25903" stroke-linecap="round" stroke-linejoin="round"/>
<path d="M246.348 556.142C246.348 556.142 271.584 540.361 276.855 550.728L280.977 562.186C280.977 562.186 301.279 565.264 307.461 563.934C308.229 563.729 309.032 563.688 309.817 563.815C310.601 563.942 311.35 564.235 312.013 564.672C312.676 565.11 313.238 565.684 313.662 566.355C314.086 567.026 314.362 567.779 314.471 568.565L316.196 568.201L316.448 571.433L257.101 594.111L255.699 591.313L257.255 590.305C257.255 590.305 255.979 585.409 253.89 574.203C250.42 568.626 247.873 562.528 246.348 556.142Z" fill="white" stroke="#263238" stroke-width="1.25903" stroke-linecap="round" stroke-linejoin="round"/>
<path d="M255.811 551.148C252.559 552.622 249.399 554.289 246.348 556.142C247.88 562.519 250.432 568.608 253.905 574.175C267.308 569.88 255.811 551.148 255.811 551.148Z" fill="white"/>
<mask id="mask17_1_50" style="mask-type:luminance" maskUnits="userSpaceOnUse" x="246" y="551" width="15" height="24">
<path d="M255.811 551.148C252.559 552.622 249.399 554.289 246.348 556.142C247.88 562.519 250.432 568.608 253.905 574.175C267.308 569.88 255.811 551.148 255.811 551.148Z" fill="white"/>
</mask>
<g mask="url(#mask17_1_50)">
<path opacity="0.5" d="M255.811 551.148C252.559 552.622 249.399 554.289 246.348 556.142C247.88 562.519 250.432 568.608 253.905 574.175C267.308 569.88 255.811 551.148 255.811 551.148Z" fill="black"/>
</g>
<path d="M255.811 551.148C252.559 552.622 249.399 554.289 246.348 556.142C247.88 562.519 250.432 568.608 253.905 574.175C267.308 569.88 255.811 551.148 255.811 551.148Z" stroke="#263238" stroke-width="1.25903" stroke-linecap="round" stroke-linejoin="round"/>
<path d="M309.326 570.65L312.102 569.586" stroke="#263238" stroke-width="1.25903" stroke-linecap="round" stroke-linejoin="round"/>
<path d="M271.36 585.143L305.807 571.993" stroke="#263238" stroke-width="1.25903" stroke-linecap="round" stroke-linejoin="round"/>
<path d="M259.695 589.592L264.616 587.717" stroke="#263238" stroke-width="1.25903" stroke-linecap="round" stroke-linejoin="round"/>
<path d="M283.795 562.577C284.131 563.809 284.128 565.109 283.788 566.339C283.448 567.57 282.782 568.687 281.861 569.572" stroke="#263238" stroke-width="1.25903" stroke-linecap="round" stroke-linejoin="round"/>
<path d="M288.338 563.109C288.338 563.109 290.245 565.599 288.17 570.104" stroke="#263238" stroke-width="1.25903" stroke-linecap="round" stroke-linejoin="round"/>
<path d="M292.937 563.641C292.937 563.641 295.741 564.928 294.535 570.636" stroke="#263238" stroke-width="1.25903" stroke-linecap="round" stroke-linejoin="round"/>
<path d="M122.774 211.151C117.657 217.115 114.298 224.38 113.072 232.136C110.871 245.342 100.454 273.504 103.805 275.602C107.156 277.701 138.673 300.784 138.673 300.784L152.497 288.011L132.869 263.053L142.599 220.636L122.774 211.151Z" fill="white"/>
<mask id="mask18_1_50" style="mask-type:luminance" maskUnits="userSpaceOnUse" x="103" y="211" width="50" height="90">
<path d="M122.774 211.151C117.657 217.115 114.298 224.38 113.072 232.136C110.871 245.342 100.454 273.504 103.805 275.602C107.156 277.701 138.673 300.784 138.673 300.784L152.497 288.011L132.869 263.053L142.599 220.636L122.774 211.151Z" fill="white"/>
</mask>
<g mask="url(#mask18_1_50)">
<path opacity="0.3" d="M122.774 211.151C117.657 217.115 114.298 224.38 113.072 232.136C110.871 245.342 100.454 273.504 103.805 275.602C107.156 277.701 138.673 300.784 138.673 300.784L152.497 288.011L132.869 263.053L142.599 220.636L122.774 211.151Z" fill="black"/>
</g>
<path d="M122.774 211.151C117.657 217.115 114.298 224.38 113.072 232.136C110.871 245.342 100.454 273.504 103.805 275.602C107.156 277.701 138.673 300.784 138.673 300.784L152.497 288.011L132.869 263.053L142.599 220.636L122.774 211.151Z" stroke="#263238" stroke-width="1.25903" stroke-linecap="round" stroke-linejoin="round"/>
<path d="M109.469 270.048C111.582 268.04 114.201 266.641 117.047 265.998C119.893 265.355 122.86 265.493 125.634 266.397" stroke="#263238" stroke-width="1.25903" stroke-linecap="round" stroke-linejoin="round"/>
<path d="M80.6017 332.919C84.4028 336.479 89.0828 338.967 94.1636 340.131C99.2444 341.295 104.544 341.091 109.52 339.542C114.496 337.993 118.971 335.153 122.487 331.312C126.003 327.472 128.434 322.769 129.532 317.684L356.518 239.522C360.525 242.85 365.345 245.056 370.487 245.916C375.628 246.776 380.906 246.258 385.781 244.415C390.656 242.573 394.953 239.472 398.234 235.429C401.515 231.386 403.66 226.547 404.453 221.405V217.88L382.567 225.42L371.127 215.502L373.58 202.911L395.466 195.384V191.859C391.665 188.295 386.984 185.803 381.901 184.638C376.818 183.472 371.517 183.674 366.538 185.224C361.56 186.774 357.083 189.615 353.566 193.458C350.049 197.3 347.618 202.006 346.521 207.094L119.536 285.255C115.529 281.928 110.708 279.721 105.567 278.862C100.425 278.002 95.1475 278.52 90.2724 280.362C85.3974 282.205 81.0999 285.306 77.8194 289.349C74.5389 293.391 72.3929 298.231 71.6008 303.372V306.968L93.4862 299.427L104.927 309.332L102.487 321.923L80.6017 329.352V332.919Z" fill="#858585" stroke="#263238" stroke-width="1.25903" stroke-linecap="round" stroke-linejoin="round"/>
<path d="M372.898 215.587L375.927 200.002L397.812 192.461C394.011 188.898 389.33 186.406 384.247 185.24C379.165 184.075 373.863 184.277 368.884 185.827C363.906 187.376 359.429 190.218 355.912 194.06C352.395 197.903 349.964 202.609 348.868 207.696L121.882 285.858C117.875 282.53 113.054 280.324 107.913 279.464C102.772 278.605 97.4937 279.123 92.6186 280.965C87.7435 282.808 83.4461 285.909 80.1656 289.951C76.8851 293.994 74.7391 298.834 73.947 303.975L95.8324 296.448L107.862 306.857L104.833 322.456L82.9479 329.94C86.749 333.5 91.429 335.989 96.5098 337.152C101.591 338.316 106.89 338.113 111.866 336.563C116.842 335.014 121.317 332.174 124.833 328.334C128.349 324.493 130.78 319.79 131.878 314.705L358.864 236.544C362.876 239.872 367.702 242.078 372.848 242.934C377.994 243.79 383.276 243.266 388.153 241.415C393.03 239.565 397.326 236.455 400.602 232.403C403.879 228.352 406.017 223.504 406.799 218.357L384.913 226.009L372.898 215.587Z" fill="#858585" stroke="#858585" stroke-width="1.25903" stroke-linecap="round" stroke-linejoin="round"/>
<path d="M198.904 166.285C198.904 166.285 194.515 157.583 193.87 154.422C193.408 152.183 194.319 147.511 193.87 145.272C192.791 140.026 185.458 125.574 185.458 125.574C185.159 124.953 184.705 124.419 184.14 124.021L179.766 129.296H168.059L150.198 152.855L158.988 174.063L156.409 177.113C157.993 178.666 158.988 179.561 158.988 179.561L156.409 194.95L181.645 197.497L182.304 187.704H189.973C191.005 187.7 191.995 187.289 192.725 186.56C193.455 185.832 193.867 184.845 193.87 183.814V170.482L197.389 169.489C197.714 169.399 198.016 169.241 198.274 169.024C198.531 168.807 198.739 168.538 198.883 168.233C199.027 167.929 199.103 167.598 199.107 167.262C199.11 166.925 199.041 166.592 198.904 166.285Z" fill="white" stroke="#263238" stroke-width="1.25903" stroke-linecap="round" stroke-linejoin="round"/>
<path d="M158.988 179.519L163.278 171.126C163.278 171.126 154.025 167.838 155.946 159.584C157.867 151.33 165.592 158.339 165.592 158.339H168.059L170.246 148.798C170.246 148.798 175.616 143.048 175.238 141.033C174.947 139.569 174.563 138.125 174.088 136.71C174.088 136.71 191.445 134.066 189.188 123.882C186.93 113.697 163.643 117.558 163.643 117.558C163.643 117.558 156.773 105.331 139.122 129.1C139.122 129.1 126.251 136.431 135.659 151.819C142.205 162.019 150.046 171.329 158.988 179.519Z" fill="#263238" stroke="#263238" stroke-width="1.25903" stroke-linecap="round" stroke-linejoin="round"/>
<path d="M168.059 139.452C168.059 139.452 154.572 166.313 143.089 168.3L139.346 163.235C139.346 163.235 140.005 158.94 147.281 158.339C147.281 158.339 154.151 155.317 162.283 141.033L168.059 139.452Z" fill="#858585" stroke="#263238" stroke-width="1.25903" stroke-linecap="round" stroke-linejoin="round"/>
<path d="M181.603 168.3C182.544 169.341 183.725 170.14 185.043 170.627C186.362 171.114 187.779 171.276 189.174 171.098" stroke="#263238" stroke-width="1.25903" stroke-linecap="round" stroke-linejoin="round"/>
<path d="M189.174 151.819C189.174 153.009 188.711 153.988 188.15 153.988C187.589 153.988 187.141 153.009 187.141 151.819C187.141 150.63 187.603 149.651 188.15 149.651C188.697 149.651 189.174 150.616 189.174 151.819Z" fill="#263238"/>
<path d="M189.174 143.593C187.775 143.289 186.313 143.488 185.048 144.157C183.783 144.825 182.795 145.919 182.262 147.245" stroke="#263238" stroke-width="1.25903" stroke-linecap="round" stroke-linejoin="round"/>
<path d="M139.08 158.8C138.843 159.114 138.531 159.363 138.173 159.524C137.814 159.685 137.42 159.753 137.028 159.721C136.636 159.689 136.258 159.558 135.931 159.341C135.603 159.123 135.336 158.827 135.154 158.479C130.696 149.959 121.555 127.071 146.076 115.767C175.224 102.337 190.842 120.636 190.842 120.636L198.595 121.461L200.656 125.057L142.332 154.477L139.08 158.8Z" fill="white" stroke="#263238" stroke-width="1.25903" stroke-linecap="round" stroke-linejoin="round"/>
<path d="M145.851 199.119C147.08 196.669 148.95 194.596 151.262 193.118C153.574 191.641 156.244 190.814 158.988 190.725C168.676 190.278 183.552 191.607 187.365 200.854C187.365 200.854 208.269 206.884 213.092 221.699C217.915 236.514 211.045 304.771 211.045 304.771C211.045 304.771 217.214 332.08 213.386 350.28C213.386 350.28 192.216 357.527 134.874 358.674C134.874 358.674 130.668 323.322 133.065 310.773C133.065 310.773 116.339 222.511 122.802 211.053C129.266 199.595 145.851 199.119 145.851 199.119Z" fill="#263238" stroke="#263238" stroke-width="1.25903" stroke-miterlimit="10"/>
<path d="M156.759 265.446C139.64 265.054 130.752 269.265 126.532 272.441C127.373 278.037 128.228 283.381 129.041 288.235C131.677 286.053 138.617 283.633 156.324 283.283C175.269 282.954 194.151 285.564 212.293 291.019C212.685 286.277 213.12 280.639 213.513 274.637C203.937 272.091 178.21 265.921 156.759 265.446Z" fill="white" stroke="#263238" stroke-width="1.25903" stroke-linecap="round" stroke-linejoin="round"/>
<path d="M211.045 304.799C211.045 304.799 211.171 303.498 211.381 301.218C203.362 299.217 180.776 294.083 159.114 293.593C141.337 293.187 133.962 296.993 130.99 299.609C132.21 306.52 133.037 310.871 133.037 310.871C132.869 311.724 132.743 312.689 132.63 313.669C135.995 311.738 143.244 309.863 158.68 309.556C177.104 309.248 195.47 311.705 213.162 316.844C212.167 309.766 211.045 304.799 211.045 304.799Z" fill="white" stroke="#263238" stroke-width="1.25903" stroke-linecap="round" stroke-linejoin="round"/>
<path d="M177.873 199.581C179.079 199.875 180.299 200.211 181.547 200.588" stroke="#7F7F7F" stroke-width="0.944269" stroke-linecap="round" stroke-linejoin="round"/>
<path d="M152.497 197.944C159.683 197.007 166.976 197.277 174.074 198.742" stroke="#7F7F7F" stroke-width="0.944269" stroke-linecap="round" stroke-linejoin="round"/>
<path d="M194.053 255.205C193.149 242.528 195.595 229.836 201.147 218.397C210.456 198.812 217.971 238.235 217.971 238.235C217.971 238.235 228.64 255.023 231.206 267.026C231.206 267.026 240.361 258.143 277.893 255.205L282.295 270.958C282.295 270.958 230.575 296.307 219.681 294.377C211.62 293.062 194.053 255.205 194.053 255.205Z" fill="white" stroke="#263238" stroke-width="1.25903" stroke-linecap="round" stroke-linejoin="round"/>
<path d="M212.587 260.801C212.572 262.367 212.703 263.932 212.98 265.474" stroke="#263238" stroke-width="1.25903" stroke-linecap="round" stroke-linejoin="round"/>
<path d="M202.941 255.205C202.941 255.205 210.484 238.697 214.438 239.816C217.242 240.641 214.242 247.203 213.036 255.205" stroke="#263238" stroke-width="1.25903" stroke-linecap="round" stroke-linejoin="round"/>
<path d="M273.406 253.666C273.406 253.666 279.477 264.186 279.183 275.169L286.543 271.181C286.543 271.181 285.814 257.793 280.669 253.288L273.406 253.666Z" fill="#263238" stroke="#263238" stroke-width="1.25903" stroke-linecap="round" stroke-linejoin="round"/>
<path d="M279.183 255.625L291.212 253.666C292.148 251.759 293.609 250.156 295.424 249.047C297.239 247.937 299.333 247.365 301.461 247.399C305.573 247.519 309.672 246.893 313.56 245.552C313.675 245.505 313.8 245.488 313.923 245.501C314.047 245.515 314.165 245.56 314.267 245.63C314.368 245.701 314.451 245.797 314.506 245.908C314.562 246.019 314.588 246.142 314.584 246.265C314.584 247.972 313.294 251.232 304.896 251.987C304.896 251.987 312.481 256.59 314.584 254.785C315.14 254.245 315.835 253.869 316.592 253.698C317.349 253.528 318.139 253.57 318.874 253.82C318.874 253.82 319.126 259.71 314.948 259.947C314.948 259.947 313.967 263.767 310.742 263.697C310.742 263.697 308.527 266.803 306.816 266.313C305.116 266.673 303.358 266.673 301.657 266.313C298.474 265.767 295.04 265.082 295.04 265.082L283.823 268.579L279.183 255.625Z" fill="#263238" stroke="#263238" stroke-width="1.25903" stroke-linecap="round" stroke-linejoin="round"/>
<path d="M313.56 257.038C313.56 257.038 313.714 259.444 311.948 259.836C310.181 260.227 312.396 262.34 306.34 264.172" stroke="#7F7F7F" stroke-width="0.944269" stroke-linecap="round" stroke-linejoin="round"/>
<path d="M231.332 271.811C231.443 275.019 231.046 278.225 230.154 281.31" stroke="#263238" stroke-width="1.25903" stroke-linecap="round" stroke-linejoin="round"/>
<path d="M285.057 261.878C284.527 259.717 283.707 257.637 282.618 255.695" stroke="#7F7F7F" stroke-width="0.944269" stroke-linecap="round" stroke-linejoin="round"/>
<path d="M285.926 266.005C285.814 265.334 285.688 264.606 285.534 263.921" stroke="#7F7F7F" stroke-width="0.944269" stroke-linecap="round" stroke-linejoin="round"/>
</svg>
